# xmcd
#
# Track frame offsets:
#	150
#	23730
#	51694
#	76490
#	99783
#	123077
#	151023
#	173673
#	196323
#	224399
#	247603
#
# Disc length: 4511 seconds
#
# Revision: 1
# Processed by: cddbd v1.5.2PL0 Copyright (c) Steve Scherf et al.
# Submitted via: audiograbber 1.83.01
#
DISCID=7e119d0b
DTITLE=Various Artist - Funkymix 150
DYEAR=2011
DGENRE=Hip-Hop
TTITLE0=Big Sean - Marvin and Chardonnay 133 bpm
TTITLE1=Drake - Marvins Room 84 bpm
TTITLE2=Tyga - Far Away 97 bpm
TTITLE3=Lloyd - Dedication to my Ex (clean) 119 bpm
TTITLE4=Lloyd - Dedication to my Ex (Dirty) 119 bpm
TTITLE5=Iyaz  - Pretty Girls 76 bpm
TTITLE6=Kreayshawn - Gucci Gucci (clean) 78 bpm
TTITLE7=Kreayshawn - Gucci Gucci (dirty) 78 bpm
TTITLE8=Wale - That Way 73 bpm
TTITLE9=DJ Drama - Oh my 132 bpm
TTITLE10=Various Artist - Another Issues of Funk Vol. 6 2011
EXTD=
EXTT0=
EXTT1=
EXTT2=
EXTT3=
EXTT4=
EXTT5=
EXTT6=
EXTT7=
EXTT8=
EXTT9=
EXTT10=
PLAYORDER=
